<svg xmlns="http://www.w3.org/2000/svg" xmlns:xlink="http://www.w3.org/1999/xlink" version="1.1" x="0px" y="0px" viewBox="0 0 512 640" style="enable-background:new 0 0 512 512;" xml:space="preserve"><g><g><g><path d="M356.947,126H314.62c-10.062,0-19.509-3.93-26.601-11.067c-7.092-7.136-10.962-16.607-10.899-26.667l0.327-52.328     c0.034-5.501,4.506-9.938,9.999-9.938c0.021,0,0.042,0,0.063,0c5.522,0.035,9.972,4.54,9.938,10.063l-0.327,52.328     c-0.029,4.695,1.776,9.115,5.086,12.445c3.31,3.331,7.719,5.165,12.414,5.165h42.327c5.522,0,10,4.477,10,10     S362.47,126,356.947,126z"/></g><g><path d="M181.492,386H76.947c-5.523,0-10-4.478-10-10s4.477-10,10-10h104.545c5.523,0,10,4.478,10,10S187.016,386,181.492,386z"/></g><g><path d="M166.947,356h-50c-5.523,0-10-4.478-10-10s4.477-10,10-10h50c5.522,0,10,4.478,10,10S172.47,356,166.947,356z"/></g><g><path d="M131.492,326H76.947c-5.523,0-10-4.478-10-10s4.477-10,10-10h54.545c5.523,0,10,4.478,10,10S137.016,326,131.492,326z"/></g><g><path d="M131.492,296H76.947c-5.523,0-10-4.478-10-10s4.477-10,10-10h54.545c5.523,0,10,4.478,10,10S137.016,296,131.492,296z"/></g><g><path d="M276.947,416h-200c-5.523,0-10-4.478-10-10s4.477-10,10-10h200c5.522,0,10,4.478,10,10S282.47,416,276.947,416z"/></g><g><path d="M208.28,216H92.947c-14.337,0-26-11.664-26-26v-72c0-14.336,11.663-26,26-26H208.28c14.337,0,26,11.664,26,26v72     C234.28,204.336,222.617,216,208.28,216z M92.947,112c-3.309,0-6,2.691-6,6v72c0,3.309,2.691,6,6,6H208.28c3.309,0,6-2.691,6-6     v-72c0-3.309-2.691-6-6-6H92.947z"/></g><g><path d="M180.947,112H120.28c-5.522,0-10-4.477-10-10V85c0-10.477,8.523-19,19-19h42.667c10.477,0,19,8.523,19,19v17     C190.947,107.523,186.47,112,180.947,112z M130.28,92h40.667v-6H130.28V92z"/></g><g><path d="M224.28,155.333H76.947c-5.523,0-10-4.477-10-10s4.477-10,10-10H224.28c5.523,0,10,4.477,10,10     S229.804,155.333,224.28,155.333z"/></g><g><path d="M189.613,172c-5.522,0-10-4.477-10-10v-26c0-5.523,4.478-10,10-10c5.523,0,10,4.477,10,10v26     C199.613,167.523,195.137,172,189.613,172z"/></g><g><path d="M111.613,172c-5.522,0-10-4.477-10-10v-26c0-5.523,4.478-10,10-10c5.523,0,10,4.477,10,10v26     C121.613,167.523,117.137,172,111.613,172z"/></g><g><path d="M456.55,436.007c-7.613,0-14.771-2.965-20.154-8.348l-58.344-58.344c-2.132-2.133-3.188-5.113-2.874-8.113     c0.313-2.999,1.965-5.696,4.493-7.341c9.213-5.992,17.266-14.023,23.285-23.225c1.648-2.52,4.345-4.163,7.34-4.473     c2.993-0.308,5.971,0.747,8.1,2.876l58.31,58.31c5.383,5.384,8.348,12.541,8.348,20.154c0,7.614-2.965,14.771-8.348,20.155     C471.32,433.043,464.163,436.007,456.55,436.007z M400.387,363.366l50.151,50.15c1.605,1.606,3.741,2.49,6.012,2.49     c2.271,0,4.407-0.885,6.014-2.49c1.605-1.605,2.489-3.741,2.489-6.013c0-2.271-0.884-4.406-2.49-6.012l-50.137-50.138     C408.761,355.702,404.742,359.712,400.387,363.366z"/></g><g><path d="M329.447,486h-265c-20.678,0-37.5-16.822-37.5-37.5v-385c0-20.678,16.822-37.5,37.5-37.5h223     c2.652,0,5.195,1.054,7.071,2.929l69.5,69.5c1.875,1.875,2.929,4.419,2.929,7.071v94.617c0,3.054-1.396,5.941-3.79,7.838     c-2.394,1.897-5.521,2.594-8.497,1.897c-5.95-1.398-12.09-2.106-18.247-2.106c-43.813,0-79.459,35.645-79.459,79.459     c0,43.813,35.646,79.458,79.459,79.458c6.135,0,12.273-0.712,18.245-2.116c2.973-0.702,6.104-0.001,8.498,1.896     s3.791,4.784,3.791,7.839v74.22C366.947,469.178,350.125,486,329.447,486z M64.447,46c-9.649,0-17.5,7.851-17.5,17.5v385     c0,9.649,7.851,17.5,17.5,17.5h265c9.649,0,17.5-7.851,17.5-17.5v-62.396c-3.499,0.371-7.017,0.559-10.534,0.559     c-54.842,0-99.459-44.616-99.459-99.458s44.617-99.459,99.459-99.459c3.521,0,7.04,0.186,10.534,0.555v-78.658L283.305,46H64.447     z"/></g><g><path d="M336.413,386.662c-54.842,0-99.459-44.616-99.459-99.458s44.617-99.459,99.459-99.459c7.694,0,15.373,0.887,22.821,2.637     c21.462,5.041,40.92,17.337,54.791,34.623c14.088,17.557,21.847,39.647,21.847,62.2c0,19.397-5.595,38.203-16.18,54.382     c-7.635,11.67-17.432,21.44-29.117,29.041c-9.614,6.255-20.158,10.76-31.34,13.388     C351.767,385.771,344.087,386.662,336.413,386.662z M336.413,207.745c-43.813,0-79.459,35.645-79.459,79.459     c0,43.813,35.646,79.458,79.459,79.458c6.135,0,12.273-0.712,18.245-2.116c8.925-2.099,17.34-5.692,25.012-10.684     c9.214-5.993,17.267-14.024,23.286-23.226c8.45-12.916,12.916-27.935,12.916-43.433c0-37.078-25.171-68.887-61.212-77.353     C348.71,208.454,342.57,207.745,336.413,207.745z"/></g><g><path d="M336.413,346.662c-32.786,0-59.459-26.673-59.459-59.458c0-32.786,26.673-59.459,59.459-59.459     c4.597,0,9.186,0.53,13.639,1.576c26.979,6.337,45.82,30.14,45.82,57.883c0,11.596-3.346,22.839-9.675,32.514     c-4.563,6.975-10.418,12.813-17.4,17.356c-5.751,3.74-12.057,6.434-18.742,8.006C345.586,346.13,340.997,346.662,336.413,346.662     z M336.413,247.745c-21.758,0-39.459,17.701-39.459,39.459c0,21.757,17.701,39.458,39.459,39.458     c3.046,0,6.096-0.354,9.065-1.052c4.428-1.041,8.604-2.825,12.413-5.302c4.576-2.978,8.578-6.969,11.569-11.541     c4.194-6.41,6.411-13.867,6.411-21.563c0-18.413-12.498-34.209-30.394-38.413C342.523,248.097,339.473,247.745,336.413,247.745z"/></g></g></g><text x="0" y="527" fill="#000000" font-size="5px" font-weight="bold" font-family="'Helvetica Neue', Helvetica, Arial-Unicode, Arial, Sans-serif">Created by Flatart</text><text x="0" y="532" fill="#000000" font-size="5px" font-weight="bold" font-family="'Helvetica Neue', Helvetica, Arial-Unicode, Arial, Sans-serif">from the Noun Project</text></svg>