<svg xmlns="http://www.w3.org/2000/svg" xmlns:xlink="http://www.w3.org/1999/xlink" version="1.1" x="0px" y="0px" viewBox="0 0 100 125" enable-background="new 0 0 100 100" xml:space="preserve"><path d="M88.973,67.365c-1.891-1.661-18.829-7.771-26.615-10.527c3.147-3.848,5.265-8.378,6.106-11.646  c1.207-1.189,2.09-3.396,2.167-5.536c0.066-1.803-0.454-3.371-1.474-4.492c0.061-0.583,4.387-9.331,1.027-17.431  c-2.194-5.289-5.596-8.717-12.149-9.652c-4.597-0.655-7.768,2.079-7.768,2.079s-14.044-6.205-19.997,5.984  c-5.208,10.663-0.117,19.357-0.096,19.415c-0.947,1.004-1.456,2.35-1.451,3.887c0.006,2.127,1.028,4.536,2.402,5.807  c0.567,2.166,3.09,7.13,6.518,11.584c-16.047,6.177-25.495,9.87-26.284,10.638C9.549,69.238,6.906,82.5,5.492,90.249  c-0.08,0.438,0.039,0.889,0.323,1.231c0.285,0.342,0.707,0.539,1.153,0.539h86.045c0.008,0.001,0.02,0,0.02,0  c0.829,0,1.501-0.672,1.501-1.501C94.533,90.355,90.954,69.106,88.973,67.365z M33.917,44.056c-0.087-0.362-0.305-0.678-0.611-0.887  c-0.628-0.43-1.584-2.137-1.584-3.73c0-2.851,2.244-3.592,2.333-3.943l3.575-10.898c0.767,2.503,13.215,9.452,24.253,2.311  c2.345,4.377,3.084,8.477,3.092,8.587c0.031,0.431,2.655,0.88,2.655,4.052c0,1.664-0.846,3.218-1.383,3.601  c-0.301,0.214-0.512,0.531-0.593,0.891C64.916,47.3,59.681,60.935,50,60.935C40.646,60.935,34.348,45.846,33.917,44.056z   M53.082,65.805c0,1.535-1.38,2.055-3.082,2.055c-1.702,0-3.082-0.519-3.082-2.055s1.38-2.78,3.082-2.78  C51.702,63.025,53.082,64.27,53.082,65.805z M38.716,59.589c0.52-0.201,2.251-0.763,2.334-0.816  c1.675,1.537,3.226,2.518,5.293,3.104l-5.357,7.678L38.716,59.589z M43.355,90.468l4.662-20.632c0.368,0.069,3.629,0.081,4.025,0.03  l4.603,20.601H43.355z M59.076,69.555l-5.526-7.594c1.951-0.635,3.779-1.712,5.399-3.188c0.097,0.062,1.558,0.594,2.185,0.816  L59.076,69.555z"/><text x="0" y="115" fill="#000000" font-size="5px" font-weight="bold" font-family="'Helvetica Neue', Helvetica, Arial-Unicode, Arial, Sans-serif">Created by H Alberto Gongora</text><text x="0" y="120" fill="#000000" font-size="5px" font-weight="bold" font-family="'Helvetica Neue', Helvetica, Arial-Unicode, Arial, Sans-serif">from the Noun Project</text></svg>